inDegrees=no
num_controls=7
num_derivatives=13
num_iterations=127
num_multipliers=7
num_parameters=0
num_slacks=7
num_states=26
objective=0.454538
objective_accelerations=0.044386
objective_balance=0.000816
objective_effort=0.036269
objective_height=0.366957
objective_ligament=0.006110
solver_duration=1460.335898
status=Solve_Succeeded
success=true
DataType=double
version=3
OpenSimVersion=4.5
endheader
time	/jointset/ground_pelvis/pelvis_tilt/value	/jointset/ground_pelvis/pelvis_tx/value	/jointset/ground_pelvis/pelvis_ty/value	/jointset/hip_r/hip_flexion_r/value	/jointset/hip_r/hip_adduction_r/value	/jointset/hip_r/hip_rotation_r/value	/jointset/back/lumbar_extension/value	/jointset/patellofemoral_r/patellar_flexion_r/value	/jointset/knee_r/knee_flexion_r/value	/jointset/knee_r/knee_adduction_r/value	/jointset/knee_r/knee_rotation_r/value	/jointset/ankle_r/ankle_angle_r/value	/jointset/subtalar_r/subtalar_angle_r/value	/jointset/ground_pelvis/pelvis_tilt/speed	/jointset/ground_pelvis/pelvis_tx/speed	/jointset/ground_pelvis/pelvis_ty/speed	/jointset/hip_r/hip_flexion_r/speed	/jointset/hip_r/hip_adduction_r/speed	/jointset/hip_r/hip_rotation_r/speed	/jointset/back/lumbar_extension/speed	/jointset/patellofemoral_r/patellar_flexion_r/speed	/jointset/knee_r/knee_flexion_r/speed	/jointset/knee_r/knee_adduction_r/speed	/jointset/knee_r/knee_rotation_r/speed	/jointset/ankle_r/ankle_angle_r/speed	/jointset/subtalar_r/subtalar_angle_r/speed	/forceset/tau_hip_flexion_r	/forceset/tau_hip_adduction_r	/forceset/tau_hip_rotation_r	/forceset/tau_knee_flexion_r	/forceset/tau_ankle_angle_r	/forceset/tau_subtalar_angle_r	/forceset/tau_lumbar_extension	lambda_cid13_p0	lambda_cid14_p0	lambda_cid14_p1	lambda_cid14_p2	lambda_cid14_p3	lambda_cid14_p4	lambda_cid14_p5	/jointset/ground_pelvis/pelvis_tilt/accel	/jointset/ground_pelvis/pelvis_tx/accel	/jointset/ground_pelvis/pelvis_ty/accel	/jointset/hip_r/hip_flexion_r/accel	/jointset/hip_r/hip_adduction_r/accel	/jointset/hip_r/hip_rotation_r/accel	/jointset/back/lumbar_extension/accel	/jointset/patellofemoral_r/patellar_flexion_r/accel	/jointset/knee_r/knee_flexion_r/accel	/jointset/knee_r/knee_adduction_r/accel	/jointset/knee_r/knee_rotation_r/accel	/jointset/ankle_r/ankle_angle_r/accel	/jointset/subtalar_r/subtalar_angle_r/accel	gamma_cid13_p0	gamma_cid14_p0	gamma_cid14_p1	gamma_cid14_p2	gamma_cid14_p3	gamma_cid14_p4	gamma_cid14_p5
1.5	-0.06109428944963342	0.04217237918299348	0.8248846201263508	0.7577251639934769	-0.2525303979751167	-0.05987987216277701	-0.6214508456865712	0.9234290509488102	0.9234290509487501	0.06553980350487745	0.1741467872149957	0.3015532767107489	0.09428543740586194	0.4034839868397935	0.2086452225377115	0.4678412548318273	-1.871211867612165	0.03921411836166705	-0.5031284691209037	0.7991421588133085	-1.909102450950081	-1.909102450950071	0.09779020031160539	0.003076001459586318	-0.5203785560692789	-0.1100856943995339	-0.1455695865739749	-0.008166435575635889	0.03549266525587034	-0.3118851643279938	0.009481833594517503	-0.01222059204049847	0.2044979485738168	-9.60225446826561	-39.72164582633409	-10.7969000665463	0.4693292332823639	-1.875126192742644	-634.4708350307363	64.93602664841382	0.03963591929768079	0.4988739805016867	-0.4418610828227362	-0.9035696705292239	0.2043955679911824	-0.1573909125459551	1.71385908243092	-1.407463281783171	-1.407463281783173	0.4935745944563649	-0.01413225051881092	-0.5925440345810444	0.1867330404865346	9.40480380501973e-08	2.825912335434065e-09	-1.517537053170894e-06	2.282779325700411e-07	1.539964037295541e-07	1.68768813924394e-07	-1.024748136725377e-06
1.51	-0.05705775598046221	0.04428357358679358	0.829539991850668	0.7389698253979041	-0.2521286493184873	-0.06491904206512314	-0.6133750537061687	0.9042700636800114	0.9042700636800228	0.06654327445217538	0.174178063303118	0.296320437912761	0.09319310850201157	0.4037677685673847	0.2135702455985548	0.4631350836091545	-1.879611340786734	0.04112267012147271	-0.504641591484509	0.8159105820229399	-1.922428854520633	-1.922428854520622	0.1029382596144208	0.003173133062411927	-0.5261081078122668	-0.1083791029970494	-0.1389526670877371	-0.009199988967569519	0.03473574095493808	-0.3078935355675094	0.01135431032581083	-0.01288917345986984	0.1983203468280656	-10.61737560291647	-38.8780783206768	-10.84600512434482	0.370293233431985	-2.026234008497404	-630.0790404448978	64.40895073276339	0.01451013590452971	0.4858251111254182	-0.4996624205264958	-0.7714567311833302	0.1821185366730647	-0.1385451052016013	1.642485653582055	-1.25532603300078	-1.255326033000661	0.530405856953977	0.02076622810199815	-0.5509640410696525	0.162634290674318	9.593583245077761e-08	1.996612929755273e-08	-1.275432814299608e-06	3.311093003124317e-07	1.201269116819123e-07	1.685413471250303e-07	-8.66040663834129e-07
1.52	-0.05302003252673272	0.04644331994965206	0.8341453684070512	0.7201378279525329	-0.2517082084329207	-0.06997139763249192	-0.6051347471509992	0.8849857929478447	0.8849857929479285	0.06759922284425229	0.174210136779752	0.291032742937961	0.09211784793229501	0.4037219837515652	0.2183556143493871	0.4578422212450049	-1.886543637571806	0.04295256414919118	-0.5057656021254653	0.8320450737666846	-1.93415914362357	-1.934159143623558	0.1082856892676299	0.003235479161986629	-0.5313497914317339	-0.1066720275727682	-0.1323357476014988	-0.01023354235950348	0.03397881665400922	-0.3039019068070248	0.013226787057104	-0.01355775487924181	0.1921427450823147	-11.63502171107912	-38.03645723082553	-10.89200902975706	0.2668307976410847	-2.185442602998202	-625.7160088082561	63.92496417072902	-0.02627738938443808	0.4709431184995103	-0.5591993111180977	-0.6101343926297731	0.1886640215737465	-0.07956856801615184	1.587072789253587	-1.088240388260206	-1.088240388260207	0.5334486645351039	-0.02108935116900179	-0.4949704098768373	0.1868298448458801	1.011107207551456e-07	3.363088522294116e-08	-1.149386723947881e-06	4.197086132612517e-07	9.976404534932572e-08	1.755015750138949e-07	-7.881260541050972e-07
1.53	-0.04898444254625856	0.0486501532635685	0.8386949282806911	0.7012439412916976	-0.2512698965950799	-0.07503293825628143	-0.5967364157997805	0.8655923089739129	0.8655923089738917	0.06870973035044299	0.1742425531344298	0.2856950935786821	0.09105962200121431	0.4033383429035121	0.2229803625674734	0.4519762185961276	-1.891975439296924	0.04469737002427292	-0.5064818531366009	0.8474989433546131	-1.944256611744773	-1.944256611744765	0.1138361675790004	0.00323666481136811	-0.5360936938349838	-0.1049696944035529	-0.1256580020440325	-0.01139054971040094	0.03320335633737718	-0.3000190667734595	0.0150869701325001	-0.01425087461144196	0.1858946055049461	-12.65216220491726	-37.21173933144097	-10.95083271033014	0.1645025825792288	-2.288137526635807	-621.4917821042311	63.46115533316569	-0.05305428594847816	0.4536559001926482	-0.6142913921244536	-0.4709593659500363	0.1655162879775427	-0.05839566774832258	1.506206075184571	-0.928366995008079	-0.9283669950086754	0.5687476519910514	0.00912735612228651	-0.4511100123588538	0.1623376195185572	1.097781463322882e-07	4.360296379680373e-08	-1.146652416398184e-06	4.931863679919033e-07	9.375196883898518e-08	1.900987285090023e-07	-7.960538614859195e-07
